HIERARCHY
ROOT hip
{
	OFFSET 0.000000 0.000000 0.000000
	CHANNELS 6 Xposition Yposition Zposition Xrotation Zrotation Yrotation 
	JOINT abdomen
	{
		OFFSET 0.000000 3.422050 0.000000
		CHANNELS 3 Xrotation Zrotation Yrotation 
		JOINT chest
		{
			OFFSET 0.000000 8.486693 -0.684411
			CHANNELS 3 Xrotation Zrotation Yrotation 
			JOINT neck
			{
				OFFSET 0.000000 10.266162 -0.273764
				CHANNELS 3 Xrotation Zrotation Yrotation 
				JOINT head
				{
					OFFSET 0.000000 3.148285 0.000000
					CHANNELS 3 Xrotation Zrotation Yrotation 
					End Site
					{
						OFFSET 0.000000 3.148289 0.000000
					}
				}
			}
			JOINT lCollar
			{
				OFFSET 3.422053 6.707223 -0.821293
				CHANNELS 3 Yrotation Zrotation Xrotation 
				JOINT lShldr
				{
					OFFSET 3.285171 0.000000 0.000000
					CHANNELS 3 Zrotation Yrotation Xrotation 
					JOINT lForeArm
					{
						OFFSET 10.129278 0.000000 0.000000
						CHANNELS 3 Yrotation Zrotation Xrotation 
						JOINT lHand
						{
							OFFSET 8.486692 0.000000 0.000000
							CHANNELS 3 Zrotation Yrotation Xrotation 
							End Site
							{
								OFFSET 4.106464 0.000000 0.000000
							}
						}
					}
				}
			}
			JOINT rCollar
			{
				OFFSET -3.558935 6.707223 -0.821293
				CHANNELS 3 Yrotation Zrotation Xrotation 
				JOINT rShldr
				{
					OFFSET -3.148289 0.000000 0.000000
					CHANNELS 3 Zrotation Yrotation Xrotation 
					JOINT rForeArm
					{
						OFFSET -10.266159 0.000000 0.000000
						CHANNELS 3 Yrotation Zrotation Xrotation 
						JOINT rHand
						{
							OFFSET -8.349810 0.000000 0.000000
							CHANNELS 3 Zrotation Yrotation Xrotation 
							End Site
							{
								OFFSET -4.106464 0.000000 0.000000
							}
						}
					}
				}
			}
		}
	}
	JOINT lThigh
	{
		OFFSET 5.338403 -1.642589 1.368821
		CHANNELS 3 Xrotation Zrotation Yrotation 
		JOINT lShin
		{
			OFFSET -2.053232 -20.121670 0.000000
			CHANNELS 3 Xrotation Zrotation Yrotation 
			JOINT lFoot
			{
				OFFSET 0.000000 -19.300380 -1.231939
				CHANNELS 3 Xrotation Yrotation Zrotation 
				End Site
				{
					OFFSET 0.000000 -2.463878 4.653993
				}
			}
		}
	}
	JOINT rThigh
	{
		OFFSET -5.338403 -1.642589 1.368821
		CHANNELS 3 Xrotation Zrotation Yrotation 
		JOINT rShin
		{
			OFFSET 2.053232 -20.121670 0.000000
			CHANNELS 3 Xrotation Zrotation Yrotation 
			JOINT rFoot
			{
				OFFSET 0.000000 -19.300380 -1.231939
				CHANNELS 3 Xrotation Yrotation Zrotation 
				End Site
				{
					OFFSET 0.000000 -2.463878 4.653993
				}
			}
		}
	}
}
MOTION
Frames: 16
Frame Time: 0.033264
-16.000916 3.996296 15.994888 154.964844 -73.412292 103.009270 10.643841 0.232917 -0.520944 50.684654 3.855527 -0.610578 10.997673 1.997655 -0.002681 -26.842888 -22.087774 -23.129482 -28.089140 -52.655621 -4.664076 87.306900 5.480227 -136.774796 -120.383011 -30.299955 -49.434860 -15.245104 -1.721336 -8.708001 -2.777506 -6.970036 6.452957 71.190720 18.937126 35.179554 95.123421 -21.363922 -42.541401 24.998369 17.996712 -0.001123 -16.707245 39.804893 -8.993676 92.675774 0.175367 -0.730540 25.763994 -11.121145 -27.702621 1.999446 -4.000242 26.998205 33.997101 0.000000 0.000000 31.234835 14.925586 24.355371 
-16.000916 3.996296 15.994888 154.964844 -73.412292 103.009270 10.643841 0.232917 -0.520944 50.684654 3.855527 -0.610578 10.997673 1.997655 -0.002681 -26.828667 -21.921259 -22.988640 -28.089140 -52.655621 -4.664076 87.306900 5.480227 -136.774796 -120.383011 -30.299955 -49.434860 -15.245102 -1.721336 -8.708000 -2.777505 -6.970036 6.452957 71.190720 18.937126 35.179554 95.123421 -21.363924 -42.541405 24.998371 17.996714 -0.001124 -16.701052 39.887928 -8.917822 92.675774 0.175367 -0.730540 25.763994 -11.121145 -27.702621 1.999446 -4.000242 26.998205 33.997101 0.000000 0.000000 31.234835 14.925586 24.355371 
-16.000916 3.996296 15.994888 154.964844 -73.412292 103.009270 10.643841 0.232917 -0.520944 50.684654 3.855527 -0.610578 10.997673 1.997655 -0.002681 -26.814011 -21.754715 -22.847866 -28.089140 -52.655621 -4.664076 87.306900 5.480227 -136.774796 -120.383011 -30.299955 -49.434860 -15.245102 -1.721336 -8.708000 -2.777505 -6.970036 6.452957 71.190720 18.937126 35.179554 95.123421 -21.363922 -42.541401 24.998371 17.996714 -0.001124 -16.694710 39.970940 -8.841866 92.675774 0.175367 -0.730540 25.763994 -11.121145 -27.702621 1.999446 -4.000242 26.998205 33.997101 0.000000 0.000000 31.234835 14.925586 24.355371 
-16.000916 3.996296 15.994888 154.964844 -73.412292 103.009270 10.643841 0.232917 -0.520944 50.684654 3.855527 -0.610578 10.997673 1.997655 -0.002681 -26.798937 -21.588146 -22.707165 -28.089140 -52.655621 -4.664076 87.306900 5.480227 -136.774796 -120.383011 -30.299955 -49.434860 -15.245102 -1.721336 -8.708000 -2.777505 -6.970035 6.452956 71.190720 18.937126 35.179554 95.123421 -21.363922 -42.541401 24.998367 17.996710 -0.001123 -16.688217 40.053940 -8.765817 92.675774 0.175367 -0.730540 25.763994 -11.121145 -27.702621 1.999446 -4.000242 26.998205 33.997101 0.000000 0.000000 31.234835 14.925586 24.355371 
-16.000916 3.996296 15.994888 154.964844 -73.412292 103.009270 10.643841 0.232917 -0.520944 50.684654 3.855527 -0.610578 10.997673 1.997655 -0.002681 -26.783424 -21.421547 -22.566515 -28.089140 -52.655621 -4.664076 87.306900 5.480227 -136.774796 -120.383011 -30.299955 -49.434860 -15.245104 -1.721336 -8.708001 -2.777505 -6.970036 6.452957 71.190720 18.937126 35.179554 95.123421 -21.363918 -42.541397 24.998365 17.996710 -0.001123 -16.681578 40.136944 -8.689671 92.675774 0.175367 -0.730540 25.763994 -11.121145 -27.702621 1.999446 -4.000242 26.998205 33.997101 0.000000 0.000000 31.234835 14.925586 24.355371 
-16.000916 3.996296 15.994888 154.964844 -73.412292 103.009270 10.643841 0.232917 -0.520944 50.684654 3.855527 -0.610578 10.997673 1.997655 -0.002681 -26.767490 -21.254925 -22.425932 -28.089140 -52.655621 -4.664076 87.306900 5.480227 -136.774796 -120.383011 -30.299955 -49.434860 -15.245104 -1.721336 -8.708001 -2.777505 -6.970036 6.452957 71.190720 18.937126 35.179554 95.123421 -21.363922 -42.541401 24.998369 17.996712 -0.001123 -16.674780 40.219913 -8.613420 92.675774 0.175367 -0.730540 25.763994 -11.121145 -27.702621 1.999446 -4.000242 26.998205 33.997101 0.000000 0.000000 31.234835 14.925586 24.355371 
-16.000916 3.996296 15.994888 154.964844 -73.412292 103.009270 10.643841 0.232917 -0.520944 50.684654 3.855527 -0.610578 10.997673 1.997655 -0.002681 -26.751135 -21.088289 -22.285414 -28.089140 -52.655621 -4.664076 87.306900 5.480227 -136.774796 -120.383011 -30.299955 -49.434860 -15.245104 -1.721336 -8.708001 -2.777506 -6.970036 6.452957 71.190720 18.937126 35.179554 95.123421 -21.363924 -42.541405 24.998371 17.996714 -0.001124 -16.667833 40.302879 -8.537072 92.675774 0.175367 -0.730540 25.763994 -11.121145 -27.702621 1.999446 -4.000242 26.998205 33.997101 0.000000 0.000000 31.234835 14.925586 24.355371 
-16.000916 3.996296 15.994888 154.964844 -73.412292 103.009270 10.643841 0.232917 -0.520944 50.684654 3.855527 -0.610578 10.997673 1.997655 -0.002681 -26.734341 -20.921627 -22.144945 -28.089140 -52.655621 -4.664076 87.306900 5.480227 -136.774796 -120.383011 -30.299955 -49.434860 -15.245102 -1.721336 -8.707999 -2.777505 -6.970036 6.452957 71.190720 18.937126 35.179554 95.123421 -21.363922 -42.541401 24.998367 17.996710 -0.001123 -16.660730 40.385822 -8.460622 92.675774 0.175367 -0.730540 25.763994 -11.121145 -27.702621 1.999446 -4.000242 26.998205 33.997101 0.000000 0.000000 31.234835 14.925586 24.355371 
-16.000916 3.996296 15.994888 154.964844 -73.412292 103.009270 10.643841 0.232917 -0.520944 50.684654 3.855527 -0.610578 10.997673 1.997655 -0.002681 -26.717136 -20.754951 -22.004536 -28.089140 -52.655621 -4.664076 87.306900 5.480227 -136.774796 -120.383011 -30.299955 -49.434860 -15.245102 -1.721336 -8.707999 -2.777505 -6.970035 6.452956 71.190720 18.937126 35.179554 95.123421 -21.363918 -42.541397 24.998367 17.996710 -0.001123 -16.653479 40.468761 -8.384075 92.675774 0.175367 -0.730540 25.763994 -11.121145 -27.702621 1.999446 -4.000242 26.998205 33.997101 0.000000 0.000000 31.234835 14.925586 24.355371 
-16.000916 3.996296 15.994888 154.964844 -73.412292 103.009270 10.643841 0.232917 -0.520944 50.684654 3.855527 -0.610578 10.997673 1.997655 -0.002681 -26.699511 -20.588263 -21.864182 -28.089140 -52.655621 -4.664076 87.306900 5.480227 -136.774796 -120.383011 -30.299955 -49.434860 -15.245102 -1.721336 -8.707999 -2.777506 -6.970036 6.452957 71.190720 18.937126 35.179554 95.123421 -21.363922 -42.541401 24.998369 17.996712 -0.001123 -16.646069 40.551678 -8.307424 92.675774 0.175367 -0.730540 25.763994 -11.121145 -27.702621 1.999446 -4.000242 26.998205 33.997101 0.000000 0.000000 31.234835 14.925586 24.355371 
-16.000916 3.996296 15.994888 154.964844 -73.412292 103.009270 10.643841 0.232917 -0.520944 50.684654 3.855527 -0.610578 10.997673 1.997655 -0.002681 -26.681448 -20.421555 -21.723877 -28.089140 -52.655621 -4.664076 87.306900 5.480227 -136.774796 -120.383011 -30.299955 -49.434860 -15.245102 -1.721336 -8.708000 -2.777505 -6.970036 6.452957 71.190720 18.937126 35.179554 95.123421 -21.363922 -42.541401 24.998373 17.996714 -0.001123 -16.638504 40.634579 -8.230671 92.675774 0.175367 -0.730540 25.763994 -11.121145 -27.702621 1.999446 -4.000242 26.998205 33.997101 0.000000 0.000000 31.234835 14.925586 24.355371 
-16.000916 3.996296 15.994888 154.964844 -73.412292 103.009270 10.643841 0.232917 -0.520944 50.684654 3.855527 -0.610578 10.997673 1.997655 -0.002681 -26.662975 -20.254843 -21.583628 -28.089140 -52.655621 -4.664076 87.306900 5.480227 -136.774796 -120.383011 -30.299955 -49.434860 -15.245102 -1.721336 -8.708000 -2.777505 -6.970035 6.452956 71.190720 18.937126 35.179554 95.123421 -21.363922 -42.541401 24.998367 17.996710 -0.001123 -16.630781 40.717461 -8.153812 92.675774 0.175367 -0.730540 25.763994 -11.121145 -27.702621 1.999446 -4.000242 26.998205 33.997101 0.000000 0.000000 31.234835 14.925586 24.355371 
-16.000916 3.996296 15.994888 154.964844 -73.412292 103.009270 10.643841 0.232917 -0.520944 50.684654 3.855527 -0.610578 10.997673 1.997655 -0.002681 -26.644070 -20.088118 -21.443424 -28.089140 -52.655621 -4.664076 87.306900 5.480227 -136.774796 -120.383011 -30.299955 -49.434860 -15.245102 -1.721336 -8.708000 -2.777505 -6.970036 6.452957 71.190720 18.937126 35.179554 95.123421 -21.363922 -42.541401 24.998369 17.996712 -0.001123 -16.622910 40.800335 -8.076856 92.675774 0.175367 -0.730540 25.763994 -11.121145 -27.702621 1.999446 -4.000242 26.998205 33.997101 0.000000 0.000000 31.234835 14.925586 24.355371 
-16.000916 3.996296 15.994888 154.964844 -73.412292 103.009270 10.643841 0.232917 -0.520944 50.684654 3.855527 -0.610578 10.997673 1.997655 -0.002681 -26.624760 -19.921392 -21.303274 -28.089140 -52.655621 -4.664076 87.306900 5.480227 -136.774796 -120.383011 -30.299955 -49.434860 -15.245102 -1.721336 -8.708000 -2.777505 -6.970036 6.452957 71.190720 18.937126 35.179554 95.123421 -21.363918 -42.541397 24.998367 17.996710 -0.001123 -16.614876 40.883179 -7.999794 92.675774 0.175367 -0.730540 25.763994 -11.121145 -27.702621 1.999446 -4.000242 26.998205 33.997101 0.000000 0.000000 31.234835 14.925586 24.355371 
-16.000916 3.996296 15.994888 154.964844 -73.412292 103.009270 10.643841 0.232917 -0.520944 50.684654 3.855527 -0.610578 10.997673 1.997655 -0.002681 -26.605022 -19.754663 -21.163172 -28.089140 -52.655621 -4.664076 87.306900 5.480227 -136.774796 -120.383011 -30.299955 -49.434860 -15.245102 -1.721336 -8.708000 -2.777506 -6.970036 6.452957 71.190720 18.937126 35.179554 95.123421 -21.363922 -42.541401 24.998369 17.996712 -0.001123 -16.606697 40.966030 -7.922631 92.675774 0.175367 -0.730540 25.763994 -11.121145 -27.702621 1.999446 -4.000242 26.998205 33.997101 0.000000 0.000000 31.234835 14.925586 24.355371 
-16.000916 3.996296 15.994888 154.964844 -73.412292 103.009270 10.643841 0.232917 -0.520944 50.684654 3.855527 -0.610578 10.997673 1.997655 -0.002681 -26.584867 -19.587929 -21.023109 -28.089140 -52.655621 -4.664076 87.306900 5.480227 -136.774796 -120.383011 -30.299955 -49.434860 -15.245102 -1.721336 -8.708000 -2.777505 -6.970036 6.452957 71.190720 18.937126 35.179554 95.123421 -21.363924 -42.541405 24.998371 17.996714 -0.001124 -16.598345 41.048832 -7.845357 92.675774 0.175367 -0.730540 25.763994 -11.121145 -27.702621 1.999446 -4.000242 26.998205 33.997101 0.000000 0.000000 31.234835 14.925586 24.355371 
